<svg width="300px" height="60px">

   <path class="fil0" d="M187 37c0,-1 -1,-2 -1,-2 -1,0 -1,0 -1,1 -1,1 4,-1 0,3 -2,3 -11,1 -13,-6 -1,-2 -1,-7 0,-9 0,-3 1,-4 2,-7 5,-8 24,-16 28,-6 1,3 1,5 -1,9 -1,2 -3,6 -5,8 -2,3 -6,7 -9,9zm4 2c0,2 1,3 3,2 2,0 2,-1 2,-1 -1,1 -3,1 -4,0 0,0 1,-2 1,-3 1,0 0,-1 0,-1 0,-1 -1,-1 -2,0 -2,1 -2,1 -2,0 2,-1 4,-3 5,-4 4,-4 11,-14 10,-19 0,-1 -1,-2 -1,-3 -4,-9 -23,-3 -29,6 -1,2 -2,3 -3,5 -1,5 -2,13 2,17 3,3 8,4 12,3 0,0 1,-1 1,-1 1,0 2,-1 2,-1 0,-1 1,-1 1,-2 1,0 3,-1 3,-1 1,1 -1,2 -1,3z"/>
   <path class="fil0" d="M154 33c0,0 -1,-1 0,-1 0,0 0,1 0,1zm-1 0c0,2 -5,3 -6,4 0,1 1,2 3,2 -2,-1 -2,-1 -1,-2 1,-1 3,-1 5,-2 1,2 7,9 6,13 -2,6 -17,2 -19,-2 -1,-3 1,-3 2,-4 -4,0 -4,6 2,8 4,2 12,4 15,0 3,-4 -5,-14 -5,-15 -1,-3 0,-3 -2,-4 -1,0 0,2 0,2z"/>
   <path class="fil0" d="M201 37c1,1 3,0 4,1 1,1 -1,2 -2,3 0,0 -1,1 -3,1 0,0 0,1 0,1 2,0 5,-2 6,0 1,2 0,3 -1,5 -4,5 -15,5 -10,0 0,0 2,-2 2,-2 0,0 -6,3 -4,5 3,3 14,-1 14,-6 0,-2 -1,-3 -4,-3 0,0 2,-1 2,-2 2,-2 0,-3 -1,-3 -1,0 -2,-1 -3,0z"/>
   <path class="fil0" d="M206 52c0,0 3,-6 5,-6 2,0 -3,7 -5,6zm5 -13c0,0 -1,-1 0,-2 2,0 5,0 4,2 0,2 -6,4 -6,6 0,0 0,0 1,1 -3,2 -7,10 -1,5 2,-1 5,-5 3,-5 0,-1 0,-1 0,-1 0,0 -1,1 -2,1 0,0 0,0 0,-1 0,-1 1,-2 2,-3 2,-1 7,-3 3,-5 -3,-1 -8,1 -4,2z"/>
   <path class="fil0" d="M122 41c-1,0 -1,0 -2,-1 -3,-2 1,-5 3,-6 1,1 3,3 3,5 0,1 -3,2 -4,2zm-5 -11c1,-1 0,-1 3,1 1,1 2,1 2,2 -7,5 -3,11 3,8 4,-2 0,-7 -1,-7 2,0 3,0 3,1 0,-2 -1,-2 -3,-2 -1,0 -2,-1 -3,-2 0,-1 -1,-1 -1,-1l-2 -1c0,0 -1,-1 -1,-1 0,0 0,0 0,0 -1,-1 -2,-1 -2,-1 0,1 0,1 1,2 1,0 0,0 1,1z"/>
   <path class="fil0" d="M224 40c0,-1 1,-2 2,-3 2,0 0,3 -2,3zm-2 -3c1,0 1,0 3,0 -1,1 -1,2 -2,3 -5,2 -5,-2 -3,-3 1,-2 4,-3 5,-1 -2,0 -3,0 -4,1 0,1 0,1 1,0zm-5 2c0,1 1,2 2,2 3,1 11,-1 8,-4 -1,-1 -1,-1 -1,-1 0,-1 0,-2 -1,-2 -1,-1 -1,0 -2,0 -2,1 -6,3 -6,5z"/>
   <path class="fil0" d="M231 37c0,-1 1,-1 1,-2 0,0 0,0 0,-1 -1,1 -2,2 -3,4 -1,2 -2,3 -2,3 1,0 1,0 2,-1 2,-2 2,-2 4,-4 1,0 3,-2 3,-1 0,2 -6,6 -2,7 0,0 0,0 0,0 0,-1 0,-2 2,-4 2,-3 2,-5 -2,-3l-3 2z"/>
   <path class="fil0" d="M103 25c0,1 0,2 3,2 0,0 -1,0 -1,0 0,0 -1,-1 0,-1 1,-1 3,-1 4,-1 3,0 4,0 6,0l12 -2c1,0 0,1 1,0l-24 2c-1,0 0,0 -1,0z"/>
   <path class="fil0" d="M72 33c0,0 -1,0 -1,0 1,-2 -1,-2 -1,-1 -1,0 0,1 0,1 0,-1 1,-1 1,0 0,4 -3,8 -8,8 -8,0 -11,-9 -10,-16 0,-6 4,-13 8,-16 1,0 1,0 2,0 0,-1 0,-1 1,-1 5,-2 13,-4 13,5 0,4 -2,14 -4,18 0,0 -1,1 -1,2zm24 22c-5,0 2,-10 2,-11 1,-1 1,-1 2,-2 1,5 2,8 -2,12 -1,0 -1,1 -2,1zm-5 -17c0,-2 1,-3 3,-4 1,-1 4,-2 4,1 0,0 0,0 0,0 0,2 0,2 0,3 1,0 1,0 1,1 0,1 -1,1 -2,1 -1,1 -4,1 -5,0 -1,-1 -1,-1 -1,-2zm-16 -3c-1,2 -1,3 -1,4 0,2 1,3 2,3 2,1 3,-1 4,-2 3,1 5,2 8,0 1,0 1,-1 2,-1 0,1 2,2 4,2 1,0 2,0 3,0 1,0 1,0 2,-1 1,0 1,1 1,1 -1,1 -2,1 -2,2 -9,11 -5,15 1,11 5,-4 4,-9 2,-13 0,0 4,-5 4,-4 0,0 -2,4 1,5 2,1 5,-1 5,-2 1,1 4,2 5,0 -3,1 -4,1 -4,-3 0,0 -1,2 -2,3 -2,1 -5,2 -4,-2 0,0 0,-2 0,-3 -1,-1 -5,4 -6,5 -1,-1 0,-1 0,-3 1,-2 1,-3 0,-3 0,-1 -1,-1 -1,-1 -1,1 0,0 -2,-1 -2,-1 -5,2 -7,4 0,-2 0,-1 0,-2l0 -1c-1,0 0,0 -1,0 -1,-4 -5,-3 -7,-1 -1,1 0,2 -2,3 -2,2 1,3 -1,5 -1,1 -2,2 -3,1 -1,0 -1,-3 0,-5 0,-1 0,-1 0,-2 -1,-1 -3,0 -4,1 0,0 -1,0 0,-1 2,-1 8,-17 6,-24 -2,-9 -16,-3 -20,1 -2,3 -2,2 -3,5 -1,1 -1,0 -1,1 0,1 0,1 -1,2 -2,6 -3,16 4,20 3,3 5,2 9,2 2,0 3,-1 4,-3 1,-1 3,-4 5,-4 0,1 0,1 0,1zm10 5c-2,0 -4,0 -4,-2 0,-5 3,-7 5,-7 1,1 1,1 2,1 2,3 1,8 -3,8zm15 -3c0,1 0,1 -1,1 0,-1 -1,-2 0,-3 0,-1 0,-1 1,0 0,1 0,2 0,2z"/>
   <path class="fil0" d="M202 33c0,0 -2,1 -3,-1 -1,-1 -1,-1 -1,0 0,0 -1,0 0,0 1,2 4,1 4,1z"/>
   <path class="fil0" d="M114 27l0 0c0,0 0,0 0,0z"/>
  </g>
  <rect class="fil1" width="282.243" height="56.4486"/>
 </g>
</svg>
