<svg width="300px" height="60px">
 <g id="Camada_x0020_1">
   <path class="fil1" d="M266 38l0 0c0,0 0,0 0,0 0,-2 -1,-3 -3,-4 -3,0 -6,0 -9,1 -2,1 -4,3 -6,4 -1,0 -2,1 -3,0 -1,-1 -2,-4 -2,-5 1,-2 3,-2 5,-2 1,0 1,2 2,2 0,-2 0,-3 -2,-3 -2,-1 -5,-1 -6,1 -1,2 -1,5 1,7 1,1 0,2 -1,3 -3,1 -5,2 -8,4 -1,0 -2,2 -1,3 0,1 1,2 2,2 2,0 3,1 5,1 3,0 6,-1 9,-3 3,-1 4,-5 0,-7 0,-1 -1,-1 -2,-2 2,0 3,-1 4,-2 1,0 2,0 2,1 -1,3 1,3 3,4 3,1 5,-1 8,-2 1,0 2,-1 2,-3zm-26 7c0,0 2,-2 2,-2 1,0 3,-2 5,-1 1,2 2,3 2,3 0,0 1,1 -1,2 -2,1 -4,2 -7,3 -3,0 -4,0 -5,-1 -1,0 -2,-1 0,-2 1,-2 3,-2 4,-2zm17 -9c0,0 3,-1 5,0 2,1 2,1 2,1 0,1 0,1 -1,2 -2,1 -3,1 -5,2 -2,0 -3,0 -4,-1 0,-1 0,-2 1,-3 1,0 2,-1 2,-1z"/>
   <path class="fil1" d="M61 27c-3,0 -6,1 -10,0 -1,0 -3,0 -3,-3 0,0 0,-1 0,-1 1,0 0,1 1,1 1,1 2,2 4,2 4,0 9,-1 13,-3 1,0 2,-1 2,0 1,1 0,1 -1,2 -5,3 -8,8 -9,13 0,1 0,1 0,1 0,1 1,3 -1,3 -2,0 -1,-2 -1,-3 -2,-2 -4,-2 -6,-3 -4,0 -8,2 -12,3 -4,2 -8,4 -12,6 -2,1 -3,1 -4,2 0,1 -1,2 -1,1 -1,0 -1,0 -1,-1 0,0 1,0 1,-1 0,-1 1,-1 2,-2 8,-4 16,-8 25,-10 2,0 4,0 6,2 2,1 3,0 3,-2 1,-2 2,-5 4,-7z"/>
   <path class="fil1" d="M178 41c-1,4 -3,6 -6,7 -3,0 -6,-1 -8,-4 -1,-4 -4,-5 -8,-4 -1,0 -1,0 -2,0 -4,0 -4,-1 -3,-5 1,-4 2,-9 3,-14 1,-1 1,-2 2,-2 0,0 0,0 1,1 3,1 7,1 11,1 0,0 1,0 1,1 1,1 0,1 -1,1 -3,1 -6,0 -9,-1 -2,0 -3,0 -3,2 -1,4 -2,9 -4,14 3,0 5,0 7,-1 3,0 5,1 6,4 0,0 0,1 1,1 2,4 5,4 9,2 1,-1 1,-2 3,-3z"/>
   <path class="fil1" d="M89 41c-1,1 -2,1 -4,2 -1,1 -2,1 -4,1 -2,-1 -1,-3 -1,-4 -2,1 -4,2 -5,2 -3,2 -5,1 -6,-2 0,-2 0,-1 -1,-1 -1,1 -3,2 -5,2 -2,1 -3,-1 -3,-3 0,-2 2,-5 4,-6 1,0 2,0 2,1 1,1 0,0 -1,1 -2,0 -3,2 -3,4 0,1 1,2 3,1 2,-1 4,-3 7,-4 0,0 1,-1 1,-1 1,0 1,-1 2,0 0,0 0,1 -1,1 0,1 -1,2 -2,3 0,0 -1,1 0,2 0,1 1,1 2,0 3,-1 6,-2 8,-4 1,0 2,-1 2,0 1,1 0,1 0,2 -1,0 -1,1 -1,1 -1,1 -2,1 -1,2 1,1 2,1 3,0 2,-1 4,-2 6,-3 0,-1 1,-1 1,0 1,0 0,1 0,1 0,1 -1,1 -1,2 0,1 0,2 2,2 0,0 1,-1 1,0 0,0 0,1 -1,1 -1,1 -3,1 -4,-1 0,-1 0,-1 0,-2z"/>
   <path class="fil1" d="M233 34c-4,0 -7,3 -8,5 0,2 0,3 2,3 3,0 5,-1 7,-3 1,-1 2,-2 1,-3 -1,-1 -2,-2 -2,-2zm4 3c0,1 0,2 -1,3 -3,2 -6,4 -9,4 -3,0 -4,-2 -4,-5 1,-3 6,-7 9,-7 3,0 5,2 5,5z"/>
   <path class="fil1" d="M135 40c-2,2 -4,3 -6,3 -1,0 -1,0 -2,-1 -1,0 0,-1 1,-2 1,0 1,-1 0,-2 2,-1 4,-1 6,-1 2,1 2,2 1,3zm-35 3c-1,0 -2,-2 -2,-2 -1,0 0,-1 2,-1 1,0 3,1 3,2 0,0 -2,1 -3,1zm37 -6c-2,-2 -8,-2 -10,0 -1,1 0,1 1,1 -2,1 -4,2 -5,3 -1,0 -3,0 -2,-2 0,-1 0,-1 0,-2 -1,0 -1,1 -2,1 -2,1 -3,2 -5,3 -1,1 -3,2 -4,1 -1,0 1,-2 1,-3 0,-1 1,-1 0,-2 0,0 -1,0 -2,0 -1,1 -2,2 -3,2 -1,-2 0,-4 -1,-6 -1,-1 -1,-2 -2,-1 -1,0 -1,1 0,2 1,2 1,3 0,5 0,1 -1,0 -2,0 -1,-1 -2,0 -3,0 -2,0 -2,1 -2,3 1,2 3,3 5,2 2,-1 5,-1 6,-3 0,0 1,-1 1,-1 0,2 -1,3 0,4 2,2 3,1 5,0 1,-1 3,-2 4,-3 1,0 1,0 2,0 1,3 3,1 5,2 2,0 3,2 6,2 3,0 6,-2 8,-5 1,-1 0,-2 -1,-3z"/>
   <path class="fil1" d="M97 30c0,0 -2,-2 -2,-3 0,0 -1,0 -2,0 0,1 0,1 1,2 1,0 2,1 3,1z"/>
   <path class="fil1" d="M179 39c-2,0 -3,-1 -4,-1 1,-1 2,0 3,0 2,0 5,0 5,1 -1,0 -4,0 -4,0zm25 -8c-1,0 -1,0 -2,0 -1,1 -2,1 -3,2 -2,2 -5,4 -8,6 0,-2 1,-3 1,-4 0,0 0,-1 -1,-1 0,0 -1,0 -1,1 0,1 -1,2 -3,2 -1,0 -1,-2 -1,-3 0,-2 -1,-3 -2,-4 0,-1 -1,-1 -1,0 -1,0 0,0 0,1 1,1 1,2 2,4 0,1 0,2 -2,1 -3,0 -5,0 -8,0 -1,0 -2,0 -2,1 0,1 1,2 1,2 1,0 1,1 2,1 5,1 9,1 13,-2 1,1 0,3 1,3 1,1 2,0 3,-1 4,-2 7,-5 10,-7 1,-1 1,-1 1,-2z"/>
   <path class="fil1" d="M210 38c-1,1 -3,2 -3,2 0,0 -3,1 -4,1 0,0 0,-1 0,-1 0,0 4,-4 4,-5 1,0 2,0 2,0 1,1 1,2 1,3zm10 -7c2,-2 4,-4 5,-6 1,0 1,-1 1,-2 -1,0 -2,0 -2,0 -1,1 -1,1 -1,1 -2,3 -5,5 -7,8 -1,2 -3,4 -5,5 0,-3 -1,-4 -2,-4 -3,1 -7,5 -7,7 0,1 -1,2 0,3 1,1 2,0 3,0 3,-1 5,-3 8,-5 1,4 4,5 7,3 1,0 2,0 1,-1 0,-1 -1,0 -2,0 0,0 -1,0 -1,0 -3,0 -3,-1 -2,-3 1,-3 3,-4 4,-6z"/>
  </g>
 </g>
</svg>
