<svg  width="300px" height="60px">
 <g id="Camada_x0020_1">
   <path class="fil1" d="M208 43c-1,-1 -1,-1 -2,-1 -4,1 -4,-1 -3,-3 0,-1 0,-1 0,-1 -3,1 -7,3 -8,3 -1,-1 4,-2 5,-3 4,-1 8,-4 11,-8 -4,0 -7,1 -11,0 0,-1 1,-1 1,-1 1,0 11,-1 13,-1 0,0 1,-1 1,-2 1,-1 2,-1 2,-2 1,-1 1,-1 2,-1 0,1 0,1 0,2 -1,1 -2,2 -3,2 2,0 6,0 6,0 0,0 0,1 0,1 -2,0 -3,0 -5,1 -1,0 -2,0 -2,0 0,0 -1,1 -1,1 -4,3 -7,6 -9,8 -1,0 -2,2 -1,3 1,1 3,0 4,0 0,0 0,0 1,-1 0,0 1,0 1,-1 0,0 0,0 0,0 2,-1 3,-2 4,-3 1,-2 2,-4 5,-5 1,0 2,0 3,1 1,1 2,2 1,4 0,1 -1,2 -2,3 1,-1 3,-1 3,-2 2,-4 16,-21 20,-22 2,0 4,0 4,2 0,4 -12,15 -15,17 -2,2 -5,4 -7,5 0,1 0,1 1,1 1,0 3,-1 3,-2 1,-1 2,-2 2,-2 1,-1 1,-1 2,0 0,0 1,1 0,2 -1,1 -2,2 -3,2 -1,1 -1,1 -1,3 4,-1 9,-4 12,-6 2,-2 5,-3 6,-6 -2,0 -5,0 -5,-1 -1,0 0,0 1,0 2,0 3,0 5,0 1,-1 2,-1 3,-2 2,-1 10,-9 13,-11 0,-1 0,-1 1,-1 0,1 0,1 0,2 -3,3 -9,8 -12,11 3,1 4,0 6,1 2,0 11,-10 13,-11 1,-1 1,-1 2,-1 0,1 0,1 0,2 -6,6 -13,14 -20,19 -1,0 -3,2 -2,2 2,1 2,-1 5,0 -3,1 -4,3 -7,2 -1,0 -1,-1 -1,-2 0,0 -1,1 -1,1 -3,1 -4,2 -6,2 -3,0 -4,-2 -2,-5 -4,2 -6,4 -11,5 -1,1 -1,0 -1,0 -1,-1 -1,-2 0,-3 -1,0 -2,0 -3,0 -1,0 -1,-1 -2,-1 0,-1 -1,0 -1,0 -1,0 -3,0 -4,1 -1,0 -2,1 -3,1 -1,1 -8,3 -8,1zm18 -6c0,0 3,-1 4,-2 2,-2 5,-4 6,-5 1,-1 5,-5 6,-6 1,-1 3,-3 3,-4 1,-1 1,-1 1,-2 1,-1 1,-2 -1,-2 -1,0 -3,2 -4,3 -1,1 -4,4 -6,6 -1,2 -6,8 -7,8 0,1 -2,3 -2,4zm-8 2c0,0 2,-1 2,-1 0,-1 2,-2 2,-3 0,0 0,-1 0,-2 -1,-1 -1,-1 -2,0 -1,0 -2,0 -3,1 -1,0 -2,1 -2,2 -1,1 -1,1 -1,1 0,0 0,1 0,2 1,0 1,1 2,1 0,0 1,0 1,0 1,0 1,-1 1,-1zm-5 1c0,0 -1,2 -3,2 -1,1 0,1 0,1 1,0 2,0 3,-1 1,0 1,0 1,-1 -1,0 -1,-1 -1,-1zm46 -9l-3 0c0,0 -2,0 -2,0 0,0 -1,0 -3,1 -2,2 -7,6 -7,7 -1,1 -2,2 -2,2 0,0 -1,1 1,1 2,0 3,0 3,-1 1,0 5,-2 5,-3 1,0 8,-7 8,-7zm-27 7c0,0 0,0 1,0 0,0 0,-1 0,-1 0,0 0,0 0,0 -1,0 -1,0 -1,1 0,0 0,0 0,0z"/>
   <path class="fil1" d="M176 31c1,0 1,0 2,0 2,2 2,4 0,6 -3,4 -7,6 -13,8 -3,0 -6,-1 -7,-5 0,0 0,0 0,-1 -2,-1 -1,-2 0,-4 2,-2 5,-6 6,-7 0,0 1,0 1,1 -1,2 -3,4 -6,8 -1,2 2,7 5,6 5,0 9,-2 12,-6 1,0 2,-2 2,-3 -1,-2 -3,-2 -4,-2 -1,0 -2,0 -2,-2 0,0 3,-1 4,-2 2,-1 5,-3 6,-5 0,-1 0,-2 0,-2 0,-8 -20,0 -24,5 0,1 0,2 1,2 0,1 1,1 1,1 0,0 0,0 0,0 -2,0 -3,0 -4,-1 0,-1 0,-1 0,-2 1,-2 3,-3 5,-4 6,-4 28,-12 22,2 -1,3 -5,5 -7,7z"/>
   <path class="fil1" d="M46 39c0,-1 2,-1 2,-2 3,-1 5,-2 7,-4 2,-2 4,-3 6,-6 1,-1 6,-4 7,-8 2,-2 2,-5 -1,-6 -3,0 -6,0 -8,1 -7,1 -13,6 -16,10 -3,2 -5,7 -7,10 -1,0 -2,1 -2,1 0,0 0,-1 0,-2 0,0 2,-3 2,-1 0,-1 1,-1 1,-2 4,-6 6,-10 15,-15 5,-2 9,-3 14,-3 3,0 4,2 4,4 1,6 -13,18 -18,21 -1,1 -2,1 -3,1 -1,1 -2,1 -3,1z"/>
   <path class="fil1" d="M191 33c0,0 -1,0 -1,0 -1,1 -2,2 -3,3 0,0 0,1 0,1 0,1 1,1 2,1 1,-1 2,-4 2,-5zm0 4c0,0 1,0 2,0 1,0 2,0 2,2 -1,2 -2,2 -2,2 0,1 2,1 2,1 -1,1 -2,2 -3,2 -1,-1 0,-3 1,-5 0,0 -1,0 -1,0 0,0 -2,0 -3,0 0,0 0,1 -1,1 -1,1 -3,2 -5,2 -2,1 -3,0 -3,-1 0,-1 0,-1 1,-1 2,1 5,0 6,-1 -1,0 -2,-1 -2,-3 1,-2 2,-2 4,-4 1,0 2,0 3,0 1,1 0,4 -1,5z"/>
   <path class="fil1" d="M44 32c1,0 2,0 1,1 -1,2 -1,1 -2,3 -3,3 -6,4 -6,7 0,1 0,1 -1,1 -1,-1 0,-2 1,-3 1,-2 2,-4 4,-6 1,-1 2,-2 3,-3z"/>
   <path class="fil1" d="M80 39c0,0 3,-4 4,-3 0,0 -1,2 -1,2 0,0 -3,2 -3,1zm-19 -2c0,-1 2,-4 3,-3 0,0 -2,3 -3,3zm39 4c-1,0 -2,0 -3,-1 0,-1 1,-1 1,-2 1,0 2,-1 3,-2 0,0 0,-1 1,-1 0,-1 0,-1 -1,-2 0,0 -1,0 -1,0 -1,1 -1,2 -2,2 -1,2 -2,3 -3,4 -1,1 -4,2 -4,0 1,0 2,-1 2,-2 1,0 2,-1 2,-2 0,0 0,-1 0,-1 0,0 -1,0 -2,0 -1,1 -2,2 -3,4 -1,0 -2,1 -3,2 -2,1 -5,3 -7,2 2,-1 5,-3 6,-5 0,-1 0,-2 -1,-3 -1,0 -2,0 -3,0 -2,2 -3,4 -4,6 -1,2 -6,4 -6,2 0,-2 2,-3 3,-4 1,-1 2,-2 3,-3 1,0 1,0 0,-1 0,0 0,0 -1,0 0,0 0,1 -1,1 -1,1 -2,2 -3,2 -1,1 -3,3 -5,3 -1,0 -1,-1 -1,-1 0,-1 -1,-2 -2,-1 -1,0 -3,0 -3,0 0,0 2,-2 3,-3 1,-2 0,-3 0,-3 -1,0 -2,0 -3,1 -1,1 -2,3 -3,5 -1,1 -4,2 -5,2 -2,0 0,2 2,2 1,0 1,-1 2,-1 1,0 1,-1 2,-1 1,0 3,0 5,0 -1,0 -1,0 -1,1 0,0 -1,1 0,1 1,1 2,1 2,0 1,-1 3,-1 5,-1 -1,3 1,4 4,3 0,0 1,0 1,0 1,-1 2,-1 2,-1 1,0 1,0 2,1 3,1 9,-3 9,-3 0,0 0,2 3,1 1,0 2,-1 3,-1 3,2 7,3 8,0 0,0 1,-1 0,-1 -1,0 -1,1 -3,1z"/>
   <path class="fil1" d="M136 38c0,0 1,0 1,0 0,1 -1,2 -1,2 0,0 0,-2 0,-2zm11 -17c-1,0 -1,0 -2,0 -3,1 -8,4 -11,7 -2,2 -11,8 -12,11 0,1 0,3 1,4 2,1 6,1 8,1 2,-1 3,-2 4,-3 0,2 0,3 3,2 0,0 0,0 0,0 0,0 0,0 -1,0 0,-1 2,-3 3,-5 0,0 0,-1 -1,-1 -1,0 -7,0 -8,0 0,0 0,1 0,1 0,1 0,1 1,1 1,0 2,0 3,0 0,1 -1,2 -2,2 -2,2 -5,2 -8,1 -1,-1 -1,-1 -1,-3 1,-3 9,-9 12,-11 1,-1 9,-7 10,-6 0,0 -1,2 0,2 0,0 1,-1 1,-1 0,-1 0,-1 0,-2z"/>
   <path class="fil1" d="M260 40c1,2 -1,2 -1,2 -1,0 -1,-1 -1,-1 0,-1 2,-1 2,-1z"/>
  </g>
 </g>
</svg>
