<svg width="300px" height="60px">
 <g id="Camada_x0020_1">
  <metadata id="CorelCorpID_0Corel-Layer"/>
  <rect class="fil0" width="283.109" height="56.6219"/>
  <path class="fil1" d="M92 27c8,-3 24,-13 25,-16 -9,5 -17,10 -25,16zm17 10c-3,1 -5,2 -6,3 -1,1 -2,2 -3,1 -1,0 1,-1 1,-2 0,-1 1,-1 1,-2 -2,0 -4,2 -6,3 -1,1 -2,2 -2,2 -1,-1 0,-2 1,-3 1,-1 3,-2 4,-4 -2,0 -4,1 -5,2 -5,3 -10,5 -14,8 -2,1 -4,2 -5,2 -1,0 -1,0 -1,0 -1,0 -2,0 -2,0 0,0 0,-1 0,-1 0,0 0,-1 0,-1 2,-3 4,-6 7,-8 0,-1 1,-1 1,-2 -1,0 -2,1 -4,1 0,0 -1,1 -1,0 0,-1 1,-1 1,-1 1,0 1,0 2,0 4,-1 7,-3 10,-6 1,-2 4,-3 6,-5 6,-4 12,-8 19,-12 2,0 3,-1 4,-1 1,0 1,-1 2,0 0,0 -1,1 -1,1 -1,1 -2,2 -3,3 -6,4 -12,7 -18,11 -2,1 -4,2 -7,3 -2,1 -3,2 -4,3 2,0 4,-1 6,-2 -1,1 -2,1 -3,2 -5,1 -8,4 -12,8 -1,1 -3,3 -4,5 0,0 0,1 0,1 0,1 1,0 1,0 2,0 5,-1 7,-3 4,-2 9,-5 13,-8 1,0 3,-1 4,-1 1,0 1,0 2,0 0,1 0,1 -1,2 0,0 -1,1 -1,2 1,-1 2,-2 3,-2 1,0 1,-1 2,0 0,0 0,1 0,1 -1,1 -1,2 -2,3 1,-1 2,-1 3,-2 1,-1 3,-1 4,-1 1,-1 1,-1 1,0 1,0 1,1 0,1 0,1 -1,2 -2,3 3,-1 5,-3 7,-4 -2,2 -4,4 -6,5 -1,0 -2,0 -2,-1 1,-2 2,-2 3,-4z"/>
  <path class="fil1" d="M120 36c7,-6 14,-12 20,-20 -7,6 -14,12 -20,20zm9 -1c-1,1 -3,2 -5,4 -2,1 -3,2 -5,3 -1,1 -2,1 -3,-1 -1,0 -1,0 -2,0 4,-3 6,-7 9,-11 4,-4 8,-8 13,-12 2,-1 3,-2 5,-3 0,0 0,-1 1,0 0,0 0,1 0,1 -6,7 -12,13 -20,19 -1,1 -3,3 -4,4 -1,1 -1,1 -1,2 0,1 1,0 2,0 3,-1 5,-3 8,-5 0,0 1,-1 2,-1z"/>
  <path class="fil1" d="M198 35c0,0 1,-1 3,-1 1,1 0,3 -1,4 -1,1 -1,1 -1,4 -1,0 -1,-2 0,-3 0,-1 0,-2 1,-3 0,0 1,-1 0,-1 0,0 -1,0 -1,0 0,0 -1,0 -1,0z"/>
  <path class="fil1" d="M139 35c0,0 0,1 -1,1 0,-1 -1,-1 -1,-1 -1,0 -1,0 -1,0 0,0 3,-1 3,-1 1,0 1,1 0,1zm-2 1c0,0 -2,2 -4,2 -2,0 -3,0 -2,0 0,0 4,-2 4,-2 1,0 3,0 2,0zm-8 6c0,0 -4,1 -5,1 0,-1 2,-2 4,-3 0,-1 1,-1 2,-2 0,2 2,1 3,1 -1,1 -3,2 -4,3zm20 -10c0,0 -1,1 -2,1 -2,1 -4,1 -6,2 0,0 0,1 -1,0 0,-1 -1,-1 -2,-1 -2,1 -4,1 -6,2 -3,2 -5,3 -7,5 -1,1 -2,2 -1,2 0,1 1,1 2,1 1,0 1,0 1,-1 2,0 3,-1 4,-2 0,0 4,-2 4,-2 0,0 -4,3 -4,3 0,0 0,0 -1,1 1,0 2,-1 3,-2 3,-2 3,-2 7,-4 2,-1 5,-3 7,-3 1,-1 2,-1 2,-2z"/>
  <path class="fil1" d="M163 36c0,0 3,-1 6,-2 2,0 4,-1 4,-1 0,1 -5,3 -7,4 1,-1 -3,-1 -3,-1zm20 -14c-1,-1 -1,-1 -2,-1 0,0 -1,1 -1,1 -9,3 -18,7 -26,12 -2,2 -5,3 -6,6 -1,1 0,3 3,3 1,0 2,0 4,-1 2,-1 6,-2 8,-3 -7,5 -8,4 -14,10 -2,1 -4,2 -5,4 0,0 0,2 0,2 1,0 1,0 1,0l0 0c1,0 1,0 1,0 -1,0 -1,-1 -1,-2 1,-2 2,-2 4,-4 3,-2 9,-5 16,-9 3,-2 6,-4 9,-6 0,-1 1,-1 0,-1 0,-1 0,-1 -1,-1 0,0 0,0 -1,1 -4,1 -8,2 -13,4 -1,0 -2,1 -4,1 0,0 0,1 0,1 0,0 1,0 1,0 1,0 2,-1 2,-1 3,-1 6,-1 7,-1 -2,2 -7,3 -9,4 -2,1 -4,1 -6,1 0,0 -1,0 -1,0 0,-1 0,-2 0,-2 1,-1 1,-1 2,-2 1,-1 3,-2 4,-3 2,-1 3,-2 5,-3 1,-1 3,-1 4,-2 5,-3 10,-5 15,-7 0,0 2,-1 3,-1 -1,1 -2,1 -2,2 -4,2 -8,5 -12,7 -1,0 -1,0 -1,0 0,1 0,1 0,1 0,0 0,0 0,-1 4,-1 6,-2 9,-4 2,-1 4,-2 6,-4 0,0 1,-1 1,-1z"/>
  <path class="fil1" d="M179 36c0,-1 1,-1 0,-2 1,0 3,-1 3,-1 0,1 -1,1 -2,2 -1,1 -2,2 -1,1zm-9 4c2,-2 6,-5 8,-6 0,2 -4,6 -8,6zm-1 2c-1,1 -2,1 -3,1 -1,0 -1,0 -1,-1 1,-1 2,-2 2,-2 3,-2 6,-4 8,-5 1,0 2,-1 3,-1 -2,1 -5,3 -6,4 -1,0 0,0 -1,0 0,0 -2,1 -2,2 1,1 2,0 3,1 -1,0 -2,1 -3,1zm21 -3c1,-1 3,-2 4,-3 1,-1 2,-1 1,-2 0,-1 -1,0 -2,0 -2,1 -4,2 -6,2 0,0 2,-1 1,-2 0,0 -1,0 -2,0 -1,1 -4,2 -6,2 1,0 2,-1 2,-2 0,0 1,-1 1,-1 -1,0 -2,0 -2,0 -2,1 -3,0 -5,1 -3,1 -6,3 -9,5 -1,0 -2,1 -2,2 -1,1 -1,3 0,3 1,0 2,0 3,0 2,-2 5,-2 7,-5 3,-2 11,-4 12,-4 0,0 -1,1 -2,1 -2,2 -3,3 -4,3 -1,0 -2,1 -1,1 0,1 1,0 1,0 1,-1 2,-1 2,-1 4,-2 11,-5 11,-4 1,0 -1,1 -1,1 -2,1 -3,2 -5,3 0,1 0,2 0,2 0,1 1,0 1,-1 1,0 7,-4 8,-4 0,0 -7,3 -7,3z"/>
  <path class="fil1" d="M207 38c-1,-1 6,-6 6,-5 -1,1 -6,5 -6,5zm17 -6c0,0 -1,1 -2,1 0,0 1,-1 2,-1zm3 7c-2,-1 -3,-2 -4,-3 -1,-1 -1,-1 0,-2 0,0 1,-1 1,-1 1,-1 2,-1 1,-2 0,-1 -1,0 -2,0 -1,1 -1,1 -2,2 -1,1 0,1 0,1 -1,0 -1,0 -1,1 -3,1 -7,3 -10,4 -1,1 -2,0 -3,0 1,-1 2,-2 3,-2 2,-1 3,-2 4,-3 0,-1 1,-1 0,-2 0,0 -1,0 -1,0 -2,2 -4,3 -6,4 -1,0 -1,2 -1,3 0,0 -1,0 -2,1 -1,1 -2,1 -3,2 0,0 1,0 2,0 1,-1 1,-1 2,-2 0,0 1,0 1,0 1,0 2,0 3,0 1,0 2,0 4,-1 2,-1 3,-2 6,-3 0,0 2,-1 2,-1 1,2 3,3 4,4 2,1 1,1 0,2 -2,1 -5,2 -7,3 0,0 -1,0 -1,1 4,-1 7,-2 10,-4 1,-1 1,-2 0,-2z"/>
  <path class="fil1" d="M137 29c0,0 -1,1 -1,2 0,1 0,1 2,1 -2,-1 -1,-1 -1,-1 -1,-1 1,-2 0,-2z"/>
  <path class="fil1" d="M125 26c0,0 -6,0 -6,1 0,0 2,1 3,1 1,0 -1,-1 -1,-1 0,0 4,0 4,-1z"/>
 </g>
</svg>
