<svg  width="25.4mm" height="5.08mm">

 <g id="Camada_x0020_1">

  <rect class="fil0" width="2388" height="478"/>
  <path class="fil1" d="M1377 258c7,4 11,5 15,8 17,10 20,30 5,48 -31,35 -63,50 -109,63 -28,4 -51,-5 -63,-35 -1,-2 -2,-7 -3,-11 -11,-9 -7,-16 6,-34 13,-16 35,-48 45,-58 3,-3 10,-4 9,3 -6,22 -23,41 -44,69 -16,21 10,59 39,56 38,-4 72,-22 104,-53 4,-4 17,-20 12,-29 -7,-11 -20,-14 -34,-16 -8,-2 -13,-2 -17,-12 0,-4 23,-9 37,-18 19,-12 38,-24 46,-47 2,-5 3,-11 3,-16 1,-67 -169,3 -201,45 -6,8 -4,13 4,19 4,2 7,4 10,6 0,1 0,2 0,2 -17,0 -22,-4 -30,-11 -6,-5 -3,-12 1,-17 8,-14 22,-25 35,-34 50,-37 237,-97 191,17 -10,24 -40,42 -61,55z"/>
  <path class="fil1" d="M278 327c0,-8 13,-8 20,-11 20,-8 36,-22 54,-36 18,-15 36,-30 53,-47 10,-10 46,-41 62,-71 10,-21 10,-43 -9,-48 -30,-7 -55,-2 -75,4 -53,13 -106,52 -132,83 -22,22 -43,58 -62,85 -4,5 -10,13 -14,10 -4,-2 -3,-10 -1,-14 2,-6 18,-29 17,-14 5,-5 6,-8 10,-14 37,-54 53,-83 128,-125 38,-17 77,-31 119,-29 27,1 36,16 36,35 1,48 -113,150 -157,178 -12,7 -15,8 -26,13 -5,2 -19,5 -23,1z"/>
  <path class="fil1" d="M1502 283c-1,-1 -7,-1 -8,0 -8,6 -12,9 -22,19 -2,2 -6,8 -2,12 4,4 11,5 17,4 5,-3 19,-26 15,-35zm2 33c3,0 10,-1 14,-2 15,-4 23,1 17,18 -5,12 -13,13 -13,18 0,6 12,2 17,5 -7,10 -20,16 -27,13 -11,-7 -2,-24 5,-36 1,-2 0,-4 -1,-4 -6,-2 -22,4 -27,5 0,0 -4,4 -7,6 -14,12 -30,18 -46,20 -14,2 -25,-2 -25,-13 0,-4 3,-10 6,-8 21,11 45,2 52,-7 -5,0 -16,-13 -13,-24 4,-16 16,-21 30,-33 7,-6 17,-5 24,1 10,8 0,31 -6,41z"/>
  <path class="fil1" d="M258 271c7,-4 18,2 13,8 -13,14 -11,11 -23,24 -21,24 -44,39 -50,64 -1,4 -2,9 -4,8 -8,-9 -2,-23 4,-32 10,-15 23,-32 36,-45 9,-9 14,-21 24,-27z"/>
  <path class="fil1" d="M565 334c-4,-4 26,-40 34,-31 3,3 -13,18 -13,18 0,0 -17,16 -21,13zm-161 -21c2,-9 16,-37 22,-26 0,4 -15,29 -22,26zm326 35c-6,0 -15,-4 -19,-12 0,-6 4,-8 8,-12 7,-6 14,-11 20,-17 3,-4 6,-7 9,-11 3,-6 3,-11 -3,-15 -4,-3 -8,-1 -12,2 -4,5 -8,10 -12,15 -9,12 -20,25 -33,34 -8,5 -33,17 -31,1 9,-7 16,-11 20,-16 6,-6 11,-12 14,-19 3,-5 2,-7 -1,-10 -2,-2 -7,-4 -15,0 -13,7 -19,19 -29,30 -5,7 -11,12 -18,17 -18,12 -45,30 -63,20 15,-7 40,-28 47,-44 3,-8 3,-15 -5,-21 -6,-4 -20,-3 -26,2 -14,13 -26,28 -35,46 -9,19 -45,35 -47,18 -1,-15 15,-26 25,-35 8,-7 18,-14 26,-22 2,-2 3,-5 1,-8 -2,-3 -6,-4 -10,-2 -3,1 -5,4 -8,6 -8,7 -16,14 -25,20 -15,11 -30,21 -48,24 -5,-3 -4,-8 -5,-11 -2,-10 -7,-13 -17,-8 -6,3 -23,5 -27,4 0,0 21,-16 27,-31 4,-11 -2,-19 -4,-20 -8,-5 -17,-2 -22,4 -12,13 -19,28 -28,43 -9,14 -31,21 -40,20 -16,-1 2,19 15,17 7,-2 14,-7 20,-10 5,-3 12,-8 14,-9 13,2 27,1 41,-3 -2,4 -2,6 -3,9 -2,4 -7,9 -2,14 5,6 14,5 17,2 10,-10 27,-12 41,-16 -3,28 12,38 36,30 2,-1 4,-2 6,-3 10,-5 20,-8 20,-8 4,1 7,4 14,6 27,9 75,-21 80,-25 1,1 1,16 20,13 10,-1 24,-6 32,-11 25,21 52,23 67,2 1,-2 2,-7 -4,-7 -4,0 -10,6 -28,7z"/>
  <path class="fil1" d="M1040 325c0,0 5,-1 8,0 -4,5 -7,10 -10,15 2,-5 2,-15 2,-15zm89 -145c-3,-3 -9,-4 -13,-3 -29,10 -66,36 -95,58 -20,16 -90,70 -97,93 -4,12 -4,24 7,34 13,12 46,13 65,7 19,-6 28,-13 38,-23 -7,20 -2,25 24,20 0,-1 1,-5 0,-5 -4,0 -6,0 -7,-1 -6,-8 12,-23 18,-36 1,-4 0,-10 -7,-12 -6,-1 -61,0 -62,1 -3,2 -7,5 -6,9 2,5 6,9 10,9 6,0 15,-1 22,-3 0,7 -2,15 -10,21 -17,12 -44,18 -66,6 -12,-6 -16,-11 -12,-23 10,-25 75,-76 97,-93 9,-7 78,-61 87,-52 4,3 -7,15 0,16 4,-1 7,-7 8,-11 2,-7 1,-10 -1,-12z"/>
  <path class="fil1" d="M1665 335l0 0c0,1 0,0 0,0z"/>
  <path class="fil1" d="M1647 361c-4,-3 -10,-2 -16,-1 -34,3 -37,-17 -28,-34 0,0 2,-6 -1,-5 -20,11 -56,29 -67,29 -6,-9 36,-23 49,-29 27,-11 60,-36 89,-68 -33,3 -62,7 -93,-1 0,-9 6,-7 10,-7 8,0 92,-6 105,-10 4,-2 8,-8 11,-11 7,-8 15,-15 21,-23 4,-4 8,-6 12,-3 6,4 2,9 -1,14 -5,6 -12,13 -18,20 13,-1 44,-6 46,-1 0,2 -1,2 -2,2 -18,6 -27,8 -42,11 -5,1 -13,3 -18,4 0,0 -7,6 -9,8 -26,20 -51,45 -74,63 -5,5 -15,20 -9,25 12,9 27,3 37,3 2,0 2,0 5,-4 3,-6 9,-8 13,-11 0,-1 0,-1 1,-1 12,-7 21,-16 28,-29 9,-16 24,-30 41,-36 12,-4 24,-6 33,3 8,8 11,19 6,35 -3,10 -10,17 -18,25 12,-4 22,-6 25,-13 19,-39 137,-177 174,-188 13,-4 29,0 28,18 0,30 -99,125 -124,144 -18,15 -43,29 -63,40 2,5 6,7 7,7 13,1 30,-4 33,-15 3,-8 10,-17 17,-21 4,-2 8,0 11,1 6,3 8,12 1,21 -4,5 -19,15 -25,18 -7,6 -7,10 -6,22 32,-11 73,-30 104,-52 17,-12 35,-27 50,-46 -18,-3 -41,-3 -48,-9 -3,-2 5,-5 9,-4 15,-1 29,0 44,-2 12,-1 20,-1 29,-9 13,-14 79,-81 104,-101 3,-2 7,-4 10,-1 4,4 4,7 2,11 -26,25 -74,73 -99,97 20,4 34,2 50,3 15,1 94,-79 109,-93 3,-3 8,-6 12,-1 4,3 4,8 1,12 -50,54 -111,116 -169,160 -5,4 -25,17 -14,21 16,6 15,-8 38,-1 -23,12 -34,23 -55,20 -12,-3 -8,-13 -7,-19 0,0 -9,4 -11,5 -25,14 -33,17 -54,19 -22,2 -33,-19 -16,-39 -33,17 -51,30 -90,42 -6,3 -10,0 -13,-6 -3,-5 -2,-14 1,-21 -9,1 -16,1 -23,-1 -6,-3 -9,-6 -13,-10 -4,-4 -9,-3 -14,-1 -9,3 -20,5 -29,8 -8,5 -18,9 -26,13 -12,6 -69,25 -71,3zm19 -17c0,2 3,1 9,-1 7,-3 6,-8 0,-5 -5,2 -9,4 -9,6zm-19 17c0,0 0,0 0,0zm43 -19c-9,7 -16,10 -28,12 -18,12 36,13 37,-5 -3,-1 -7,-4 -9,-7zm39 -6c-10,6 -22,1 -27,-6 -2,-2 -3,-8 -2,-11 7,-15 19,-36 41,-42 6,-1 16,-4 21,1 18,18 -14,46 -33,58zm87 -49c41,-55 72,-86 109,-123 10,-11 29,-30 45,-27 13,3 2,23 -6,31 -33,42 -54,65 -93,100 -19,17 -53,39 -72,47 0,-8 13,-22 17,-28zm31 38c0,0 8,-3 11,-6 3,-3 5,-9 -1,-5 -6,3 -9,6 -10,11zm88 33c-11,-5 8,-21 15,-29 19,-21 42,-38 64,-57 9,-7 19,-11 31,-9 10,1 23,2 38,3 -22,20 -114,107 -148,92z"/>
  <path class="fil1" d="M2087 341c8,14 -7,14 -9,13 -4,-2 -7,-6 -6,-10 1,-5 12,-8 15,-3z"/>
 </g>
</svg>
