<svg width="300px" height="60px">
 <g id="Camada_x0020_1">
  <g id="_308894864">
   <path class="fil0" d="M84 19c8,-3 24,-12 25,-15 -9,4 -17,9 -25,15zm17 10c-3,1 -5,2 -6,4 -1,0 -2,1 -3,1 -1,-1 1,-2 1,-3 0,-1 1,-1 1,-2 -2,1 -4,2 -6,4 -1,0 -1,2 -2,1 -1,-1 0,-2 1,-3 1,-1 3,-2 4,-4 -2,0 -4,1 -5,2 -5,3 -10,5 -14,8 -2,1 -3,2 -5,2 -1,0 -1,1 -1,1 -1,0 -2,0 -2,-1 0,0 0,0 0,-1 0,0 0,0 0,-1 2,-3 4,-5 7,-8 0,-1 1,-1 1,-2 -1,1 -2,1 -3,2 -1,0 -2,0 -2,-1 0,0 1,0 1,-1 1,0 1,0 2,0 4,-1 7,-3 10,-6 2,-2 4,-3 6,-4 6,-5 13,-9 20,-13 1,0 2,-1 3,-1 1,0 1,0 2,0 0,0 0,1 -1,1 -1,1 -2,2 -3,3 -6,4 -12,8 -18,11 -2,1 -4,3 -7,3 -2,1 -3,2 -4,3 2,0 4,-1 6,-1 -1,1 -2,1 -2,1 -6,1 -9,4 -13,8 -1,2 -2,3 -4,5 0,1 0,1 0,1 0,1 1,1 1,0 2,0 5,-1 7,-2 4,-3 9,-6 13,-8 2,-1 3,-2 5,-2 0,0 0,0 1,0 0,1 0,1 0,2 -1,1 -2,1 -2,2 1,-1 2,-1 3,-2 1,0 2,-1 2,0 0,1 0,1 0,2 0,0 -1,1 -2,2 2,0 2,-1 3,-1 1,-1 3,-2 4,-2 1,0 1,-1 1,0 1,0 1,1 0,1 0,1 -1,2 -2,3 3,-1 5,-3 7,-3 -2,1 -4,4 -6,4 -1,1 -2,0 -2,-1 1,-1 2,-2 3,-4z"/>
   <path class="fil0" d="M112 28c7,-6 14,-12 20,-20 -7,6 -14,12 -20,20zm9 -1c-1,1 -3,2 -5,4 -1,1 -3,3 -5,3 -1,1 -2,1 -3,0 0,-1 -1,-1 -1,-1 3,-3 5,-7 8,-10 4,-5 9,-9 14,-13 1,-1 2,-2 4,-3 0,0 1,-1 1,0 0,0 0,1 0,1 -6,7 -12,14 -20,19 -1,1 -3,3 -4,4 -1,1 -1,1 -1,2 1,1 1,1 2,0 3,-1 5,-3 8,-5 0,0 1,-1 2,-1z"/>
   <path class="fil0" d="M190 28c0,-1 1,-2 3,-2 1,1 0,3 -1,4 -1,1 -1,1 -1,4 -1,0 -1,-2 0,-3 0,-1 0,-1 1,-2 0,-1 1,-1 0,-2 0,0 -1,0 -1,0 0,0 -1,1 -1,1z"/>
   <path class="fil0" d="M132 27c-1,1 -1,1 -2,1 0,0 0,0 -1,0 -1,0 -1,-1 -1,-1 0,0 3,-1 3,-1 1,1 1,1 1,1zm-3 1c0,0 -1,2 -4,2 -2,1 -3,0 -2,0 0,0 4,-2 4,-2 1,0 3,0 2,0zm-8 6c0,0 -4,2 -4,1 -1,0 1,-2 3,-3 0,0 1,-1 2,-1 0,1 2,0 3,0 -1,1 -3,2 -4,3zm20 -9c0,-1 -1,0 -2,0 -2,1 -4,2 -6,2 0,0 0,1 -1,0 0,-1 -1,-1 -2,-1 -2,1 -4,2 -6,3 -3,1 -5,2 -7,5 -1,0 -2,1 -1,2 0,0 1,0 2,0 1,0 1,0 1,0 2,-1 3,-2 4,-2 0,0 4,-3 4,-3 0,0 -4,3 -4,3 0,0 0,0 -1,1 2,0 2,-1 3,-1 3,-3 3,-3 7,-5 2,-1 6,-3 7,-3 1,0 2,-1 2,-1z"/>
   <path class="fil0" d="M155 29c0,-1 3,-2 6,-3 2,0 4,-1 4,0 0,0 -5,2 -7,4 1,-2 -3,-1 -3,-1zm20 -15c-1,-1 -1,-1 -2,-1 0,0 -1,1 -1,1 -9,3 -18,7 -26,13 -2,1 -5,3 -6,5 -1,2 0,3 3,3 1,0 2,0 4,-1 2,0 6,-2 8,-2 -7,4 -15,10 -21,15 -2,2 -3,3 -4,5 -1,1 -1,1 0,2 0,0 0,0 1,0l0 0c0,0 0,0 0,0 -1,-1 -1,-1 0,-2 0,-1 0,-1 1,-2 7,-7 16,-13 25,-18 3,-2 6,-4 9,-6 0,-1 1,-1 0,-1 0,-1 0,-1 -1,0 0,0 0,0 -1,0 -4,1 -8,3 -13,4 -1,1 -2,1 -4,1 0,1 0,1 0,1 0,1 1,0 1,0 1,0 2,0 3,-1 2,-1 5,-1 6,-1 -2,2 -6,3 -9,4 -2,1 -4,1 -6,1 0,0 -1,0 -1,0 0,-1 0,-2 0,-2 1,-1 1,-1 2,-2 1,-1 3,-2 4,-3 2,-1 3,-2 5,-3 1,-1 3,-1 4,-2 5,-3 10,-5 15,-7 0,0 2,-1 3,-1 -1,1 -2,2 -2,2 -4,3 -8,5 -12,7 0,0 -1,0 -1,1 0,0 0,0 0,0 0,1 0,0 0,0 4,-2 6,-3 9,-5 2,-1 4,-2 6,-4 0,0 1,-1 1,-1z"/>
   <path class="fil0" d="M171 29c0,-1 1,-2 1,-3 0,0 2,-1 2,0 0,0 -1,0 -1,1 -1,1 -3,2 -2,2zm-8 3c1,-2 6,-5 8,-5 -1,2 -5,5 -8,5zm-2 2c-1,1 -2,1 -3,1 -1,0 -1,0 -1,-1 1,-1 2,-1 3,-2 2,-2 5,-4 7,-5 1,0 2,-1 3,-1 -2,1 -5,3 -6,4 -1,0 0,0 -1,0 0,1 -2,1 -1,2 0,1 1,1 2,1 -1,0 -2,1 -3,1zm21 -3c2,-1 4,-2 4,-3 1,0 2,-1 1,-2 0,-1 -1,0 -2,0 -2,1 -4,2 -6,3 0,-1 2,-2 1,-3 0,0 -1,0 -2,0 -1,1 -4,2 -5,2 0,0 1,-1 1,-2 0,0 1,0 1,-1 0,0 -1,0 -2,0 -2,1 -3,0 -5,1 -3,1 -6,3 -8,5 -2,1 -2,1 -3,2 -1,1 -1,3 0,3 1,0 2,0 3,0 2,-1 5,-2 7,-4 4,-3 12,-5 12,-5 0,0 -1,1 -2,1 -2,2 -3,3 -4,3 -1,1 -2,1 -1,1 0,1 1,0 1,0 1,0 2,-1 2,-1 4,-2 11,-5 11,-4 1,0 -1,1 -1,1 -2,1 -3,2 -4,4 -1,0 -1,1 -1,1 0,1 1,0 1,-1 1,0 7,-3 8,-4 0,0 -7,4 -7,3z"/>
   <path class="fil0" d="M199 30c-1,-1 6,-6 6,-5 0,1 -6,6 -6,5zm17 -6c0,0 -1,1 -2,1 0,0 1,-1 2,-1zm3 7c-2,-1 -3,-2 -4,-3 -1,-1 -1,-1 0,-2 0,0 1,-1 1,-1 1,-1 2,-1 1,-2 0,0 -1,0 -2,0 0,1 -1,2 -2,2 -1,1 0,1 0,1 -1,0 -1,1 -1,1 -3,2 -6,4 -10,5 -1,0 -2,0 -3,-1 1,-1 2,-1 3,-2 2,-1 3,-2 4,-3 0,0 1,-1 0,-2 0,0 -1,0 -1,1 -2,1 -4,2 -6,3 -1,0 -1,2 -1,3 0,0 -1,1 -2,1 -1,1 -2,1 -3,2 1,0 1,0 2,0 1,-1 1,-1 2,-1 0,-1 2,-1 2,-1 0,0 1,1 2,1 1,0 2,-1 4,-1 2,-1 3,-2 6,-4 1,0 2,-1 2,-1 1,2 3,3 4,4 2,1 1,2 0,2 -2,2 -5,3 -7,3 0,1 -1,1 -1,1 4,0 7,-2 10,-4 1,-1 1,-1 0,-2z"/>
   <path class="fil0" d="M129 21c0,0 -1,1 -1,2 0,1 0,2 2,1 -2,-1 -1,0 -1,-1 0,0 1,-2 0,-2z"/>
   <path class="fil0" d="M117 18c0,0 -6,0 -6,1 0,1 2,1 4,1 0,0 -2,0 -2,-1 0,0 4,0 4,-1z"/>
  </g>
 </g>
</svg>
