<svg width="300px" height="60px">
 <g id="Camada_x0020_1">
  <path class="fil1" d="M264 32l0 0c0,0 0,-1 0,-1 0,-1 -1,-3 -3,-3 -3,-1 -6,-1 -9,1 -2,1 -4,2 -6,3 -1,0 -2,1 -3,0 -1,0 -3,-4 -2,-5 1,-2 3,-1 4,-1 2,-1 2,1 3,2 0,-2 0,-3 -2,-4 -2,0 -5,0 -6,1 -2,3 -1,5 0,7 1,2 1,2 -1,3 -2,1 -5,3 -7,4 -1,1 -2,2 -2,3 1,1 1,2 3,2 1,1 3,1 5,1 3,0 6,-1 9,-2 3,-2 3,-5 0,-8 0,0 -1,-1 -2,-1 2,-1 3,-2 4,-2 1,-1 1,-1 1,0 0,3 2,4 4,4 3,1 5,-1 7,-2 2,0 3,-1 3,-2zm-27 6c0,0 3,-2 3,-2 1,0 3,-1 5,0 1,1 2,2 2,2 0,0 1,2 -1,3 -2,0 -5,2 -8,2 -3,0 -4,0 -4,-1 -1,0 -2,-1 -1,-2 2,-1 3,-2 4,-2zm18 -8c0,0 2,-2 4,-1 2,1 2,2 2,2 1,0 1,1 -1,1 -1,1 -2,2 -4,2 -2,0 -3,0 -4,-1 -1,-1 0,-2 1,-2 1,-1 2,-1 2,-1z"/>
  <path class="fil1" d="M59 19c-3,0 -6,1 -10,0 -1,-1 -3,-1 -3,-3 -1,-1 0,-1 0,-1 1,-1 0,0 1,0 1,1 2,2 3,2 5,0 10,-1 14,-3 1,0 2,0 2,0 1,1 0,2 -1,2 -6,3 -8,8 -9,14 0,0 0,0 0,1 -1,0 0,2 -1,2 -2,0 -1,-1 -2,-2 -1,-3 -3,-3 -5,-3 -4,-1 -8,1 -12,2 -4,2 -9,4 -13,6 -1,1 -2,1 -3,2 -1,1 -1,2 -2,1 0,0 0,0 0,-1 0,0 0,0 1,-1 0,-1 1,-1 2,-2 8,-4 16,-8 24,-9 3,-1 5,0 7,1 2,1 2,0 3,-1 1,-3 2,-5 4,-7z"/>
  <path class="fil1" d="M175 34c-1,3 -2,6 -5,6 -4,1 -7,-1 -8,-3 -2,-4 -4,-5 -8,-5 -1,0 -1,0 -2,0 -4,0 -4,-1 -3,-4 1,-5 2,-10 3,-15 1,-1 1,-1 2,-1 0,0 0,0 1,0 3,2 7,2 11,1 0,0 1,0 1,1 1,1 0,1 -1,1 -3,1 -6,1 -9,0 -2,-1 -3,-1 -3,1 -1,5 -2,9 -4,14 2,0 5,0 7,0 3,0 4,1 6,3 0,1 0,1 0,2 3,4 6,4 10,1 0,-1 1,-2 2,-2z"/>
  <path class="fil1" d="M87 32c-2,1 -3,2 -4,3 -1,0 -3,1 -4,0 -2,-1 -1,-2 -1,-4 -2,1 -4,2 -6,3 -3,1 -4,0 -5,-3 0,-1 -1,-1 -1,0 -2,1 -3,2 -5,2 -2,0 -3,-1 -3,-3 0,-3 2,-6 4,-6 1,-1 2,-1 2,0 1,1 -1,1 -1,1 -2,1 -3,3 -3,4 -1,2 1,2 2,1 3,-1 5,-2 7,-4 1,0 2,0 2,-1 1,0 1,0 1,0 1,1 0,1 0,2 -1,0 -1,1 -2,2 -1,1 -1,2 -1,3 1,1 2,0 3,0 3,-1 5,-3 8,-4 1,-1 1,-1 2,-1 1,1 0,2 -1,3 0,0 0,0 0,1 -1,0 -2,1 -1,2 1,1 2,0 3,0 2,-1 4,-2 5,-4 1,0 2,0 2,0 1,1 0,1 0,2 -1,0 -1,1 -1,2 0,1 0,2 2,1 0,0 1,0 1,1 0,0 0,1 -1,1 -1,1 -3,0 -4,-1 0,-1 0,-2 0,-3z"/>
  <path class="fil1" d="M230 27c-3,0 -6,3 -7,6 -1,1 0,2 2,2 2,0 5,-1 7,-3 1,-1 1,-2 1,-3 -1,-1 -2,-2 -3,-2zm5 3c0,1 0,2 -1,3 -3,2 -6,4 -10,4 -2,0 -4,-2 -3,-5 1,-3 5,-7 9,-7 3,1 5,3 5,5z"/>
  <path class="fil1" d="M133 32c-2,2 -4,3 -6,3 -1,0 -2,0 -2,-1 -1,0 0,-1 1,-2 1,0 1,-1 -1,-1 3,-1 5,-2 7,-1 2,0 2,1 1,2zm-35 3c-2,0 -3,-2 -3,-2 0,-1 1,-1 2,-1 2,0 4,1 4,1 0,1 -2,1 -3,2zm37 -6c-3,-2 -8,-2 -10,0 -1,1 0,1 0,2 -1,0 -3,1 -4,2 -2,0 -3,0 -2,-2 0,-1 0,-1 0,-2 -1,0 -2,1 -2,1 -2,1 -4,2 -5,3 -2,1 -3,2 -4,1 -1,-1 0,-2 1,-3 0,-1 1,-1 0,-2 -1,0 -1,0 -2,0 -1,1 -2,2 -4,2 0,-2 1,-4 0,-6 -1,-1 -1,-2 -2,-1 -1,0 -1,1 0,2 1,1 1,3 0,4 0,1 -2,1 -3,1 -1,-1 -2,0 -3,0 -1,0 -1,1 -1,2 1,2 3,3 5,3 2,-1 5,-1 6,-3 0,-1 1,-1 1,-1 0,2 -1,3 0,4 1,2 3,1 4,0 2,-1 3,-2 5,-3 0,0 1,-1 1,0 2,3 4,1 6,2 2,0 3,2 5,2 4,0 6,-2 8,-4 1,-2 1,-3 0,-4z"/>
  <path class="fil1" d="M95 22c0,-1 -2,-2 -2,-3 -1,0 -1,0 -2,0 0,0 0,1 1,1 1,1 2,2 3,2z"/>
  <path class="fil1" d="M176 31c-1,0 -3,0 -3,-1 1,0 2,0 3,0 2,0 4,1 5,1 -1,1 -5,0 -5,0zm26 -7c-1,-1 -1,-1 -2,0 -1,0 -2,1 -3,2 -3,2 -5,4 -8,6 0,-2 0,-3 1,-4 0,0 0,-1 -1,-1 0,0 -1,0 -1,0 0,2 -2,3 -3,3 -1,0 -1,-2 -1,-3 0,-2 -1,-4 -2,-5 -1,0 -1,0 -1,0 -1,1 0,1 0,1 1,2 1,3 1,4 1,2 1,2 -1,2 -3,0 -5,0 -8,-1 -1,0 -2,0 -2,1 0,1 0,2 1,3 1,0 1,0 2,1 4,1 9,0 13,-3 0,2 0,3 1,4 1,1 2,-1 3,-1 4,-2 6,-6 10,-7 1,-1 1,-1 1,-2z"/>
  <path class="fil1" d="M207 31c0,0 -2,2 -2,2 0,0 -3,1 -4,1 0,0 0,-1 0,-1 0,-1 3,-4 4,-5 1,-1 2,0 2,0 0,1 1,2 0,3zm11 -7c2,-2 4,-4 5,-6 1,0 1,-1 0,-2 0,0 -1,0 -1,1 -1,0 -1,0 -1,0 -2,3 -5,5 -7,8 -2,2 -3,4 -6,5 1,-3 0,-4 -2,-4 -2,1 -6,5 -6,7 -1,1 -1,2 0,3 1,0 2,0 3,0 3,-1 5,-3 8,-5 1,4 3,5 7,3 0,0 1,0 1,-1 0,-1 -1,0 -2,0 0,0 -1,0 -1,0 -3,0 -3,-1 -3,-3 1,-3 3,-4 5,-6z"/>
 </g>
</svg>
