<svg width="300px" height="60px" >
 <g id="Camada_x0020_1">
  <g id="_306359720">
   <path class="fil1" d="M163 31c0,0 1,0 1,0 2,2 3,4 1,6 -4,4 -7,6 -13,8 -3,0 -6,-1 -7,-5 0,0 -1,0 -1,-1 -1,-1 -1,-2 1,-4 2,-2 4,-6 5,-7 1,0 2,0 1,1 0,2 -2,4 -5,8 -2,2 1,7 5,6 4,0 8,-2 12,-6 1,0 2,-2 1,-3 0,-2 -2,-2 -3,-2 -1,0 -2,0 -2,-2 0,0 2,-1 4,-2 2,-1 4,-3 5,-5 1,-1 1,-2 1,-2 0,-8 -20,0 -24,5 -1,1 -1,2 0,2 1,1 1,1 2,1 0,0 0,0 0,0 -2,0 -3,0 -4,-1 -1,-1 0,-1 0,-2 1,-2 3,-3 4,-4 6,-4 28,-12 23,2 -1,3 -5,5 -7,7z"/>
   <path class="fil1" d="M33 39c0,-1 1,-1 2,-2 3,-1 4,-2 7,-4 2,-2 4,-3 6,-6 1,-1 5,-4 7,-8 1,-2 1,-5 -1,-6 -3,0 -6,0 -9,1 -6,1 -12,6 -15,10 -3,2 -5,7 -8,10 0,0 -1,1 -1,1 -1,0 -1,-1 0,-2 0,0 2,-3 2,-1 0,-1 0,-1 1,-2 4,-6 6,-10 15,-15 4,-2 9,-3 14,-3 3,0 4,2 4,4 0,6 -13,18 -18,21 -2,1 -2,1 -3,1 -1,1 -3,1 -3,1z"/>
   <path class="fil1" d="M177 33c0,0 0,0 -1,0 0,1 -1,2 -2,3 0,0 -1,1 0,1 0,1 1,1 2,1 0,-1 2,-4 1,-5zm1 4c0,0 1,0 1,0 2,0 3,0 2,2 0,2 -1,2 -1,2 0,1 1,1 2,1 -1,1 -3,2 -3,2 -2,-1 -1,-3 0,-5 0,0 0,0 0,0 -1,0 -3,0 -3,0 0,0 -1,1 -1,1 -2,1 -3,2 -5,2 -2,1 -3,0 -3,-1 0,-1 0,-1 0,-1 3,1 6,0 6,-1 0,0 -1,-1 -1,-3 0,-2 2,-2 4,-4 0,0 1,0 2,0 2,1 0,4 0,5z"/>
   <path class="fil1" d="M31 32c0,0 2,0 1,1 -2,2 -1,1 -3,3 -2,3 -5,4 -6,7 0,1 0,1 0,1 -1,-1 0,-2 0,-3 2,-2 3,-4 5,-6 1,-1 1,-2 3,-3z"/>
   <path class="fil1" d="M67 39c-1,0 3,-4 4,-3 0,0 -2,2 -2,2 0,0 -2,2 -2,1zm-19 -2c0,-1 2,-4 2,-3 0,0 -1,3 -2,3zm38 4c-1,0 -2,0 -2,-1 0,-1 0,-1 1,-2 1,0 2,-1 2,-2 1,0 1,-1 1,-1 1,-1 1,-1 0,-2 -1,0 -1,0 -1,0 -1,1 -1,2 -2,2 -1,2 -2,3 -4,4 -1,1 -4,2 -3,0 1,0 1,-1 2,-2 1,0 1,-1 2,-2 0,0 0,-1 0,-1 -1,0 -1,0 -2,0 -2,1 -3,2 -4,4 0,0 -1,1 -2,2 -2,1 -5,3 -7,2 1,-1 4,-3 5,-5 1,-1 1,-2 0,-3 -1,0 -3,0 -3,0 -2,2 -3,4 -4,6 -2,2 -6,4 -6,2 0,-2 2,-3 3,-4 1,-1 2,-2 3,-3 0,0 0,0 0,-1 0,0 -1,0 -1,0 0,0 -1,1 -1,1 -1,1 -2,2 -3,2 -2,1 -4,3 -6,3 0,0 0,-1 0,-1 -1,-1 -1,-2 -2,-1 -1,0 -3,0 -3,0 0,0 2,-2 3,-3 0,-2 0,-3 -1,-3 -1,0 -2,0 -2,1 -2,1 -3,3 -4,5 -1,1 -3,2 -4,2 -2,0 0,2 1,2 1,0 2,-1 3,-1 0,0 1,-1 1,-1 2,0 4,0 5,0 0,0 0,0 0,1 0,0 -1,1 0,1 0,1 1,1 2,0 1,-1 3,-1 5,-1 -1,3 1,4 4,3 0,0 0,0 1,0 1,-1 2,-1 2,-1 0,0 1,0 1,1 4,1 9,-3 10,-3 0,0 0,2 2,1 1,0 3,-1 4,-1 3,2 6,3 8,0 0,0 0,-1 0,-1 -1,0 -2,1 -4,1z"/>
   <path class="fil1" d="M123 38c0,0 0,0 1,0 -1,1 -1,2 -1,2 0,0 0,-2 0,-2zm10 -17c0,0 -1,0 -1,0 -4,1 -8,4 -11,7 -3,2 -11,8 -12,11 0,1 0,3 1,4 1,1 5,1 8,1 2,-1 3,-2 4,-3 -1,2 0,3 3,2 0,0 0,0 0,0 0,0 -1,0 -1,0 -1,-1 2,-3 2,-5 0,0 0,-1 -1,-1 0,0 -7,0 -7,0 0,0 -1,1 -1,1 1,1 1,1 2,1 0,0 1,0 2,0 0,1 0,2 -1,2 -2,2 -5,2 -8,1 -1,-1 -2,-1 -1,-3 1,-3 9,-9 11,-11 1,-1 10,-7 11,-6 0,0 -1,2 0,2 0,0 0,-1 1,-1 0,-1 0,-1 -1,-2z"/>
   <path class="fil1" d="M197 40l0 0c0,0 0,0 0,0z"/>
   <path class="fil1" d="M229 42c-2,0 0,-2 1,-3 3,-3 5,-5 8,-7 1,-1 2,-1 4,-1 1,0 2,0 4,0 -3,3 -13,13 -17,11zm-11 -4c0,0 1,0 1,0 1,-1 1,-1 0,-1 0,0 -1,1 -1,1zm-21 3c0,0 0,0 1,-1 1,0 1,0 0,0 -1,0 -1,0 -1,1zm-2 2c-1,-1 -2,-1 -2,-1 -4,1 -5,-1 -4,-3 0,-1 1,-1 0,-1 -2,1 -6,3 -8,3 0,-1 5,-2 6,-3 3,-1 7,-4 11,-8 -4,0 -8,1 -11,0 0,-1 0,-1 1,-1 1,0 11,-1 12,-1 1,0 1,-1 2,-2 0,-1 1,-1 2,-2 0,-1 1,-1 1,-1 1,1 1,1 0,2 0,1 -1,2 -2,2 2,0 5,0 6,0 0,0 -1,1 -1,1 -2,0 -3,0 -5,1 0,0 -1,0 -2,0 0,0 -1,1 -1,1 -3,3 -6,6 -9,8 0,0 -1,2 -1,3 2,1 4,0 5,0 0,0 0,0 0,-1 1,0 1,0 2,-1 0,0 0,0 0,0 1,-1 3,-2 3,-3 1,-2 3,-4 5,-5 2,0 3,0 4,1 1,1 1,2 1,4 -1,1 -1,2 -2,3 1,-1 2,-1 3,-2 2,-4 16,-21 20,-22 2,0 4,0 3,2 0,4 -11,15 -14,17 -2,2 -5,4 -8,5 1,1 1,1 1,1 2,0 4,-1 4,-2 0,-1 1,-2 2,-2 1,-1 1,-1 1,0 1,0 1,1 1,2 -1,1 -3,2 -3,2 -1,1 -1,1 -1,3 4,-1 8,-4 12,-6 2,-2 4,-3 6,-6 -2,0 -5,0 -6,-1 0,0 1,0 1,0 2,0 4,0 6,0 1,-1 2,-1 3,-2 2,-1 9,-9 12,-11 1,-1 1,-1 2,-1 0,1 0,1 0,2 -3,3 -9,8 -12,11 2,1 4,0 6,1 2,0 11,-10 13,-11 0,-1 1,-1 1,-1 1,1 1,1 0,2 -6,6 -13,14 -20,19 0,0 -3,2 -1,2 2,1 2,-1 4,0 -2,1 -4,3 -6,2 -2,0 -1,-1 -1,-2 0,0 -1,1 -1,1 -3,1 -4,2 -7,2 -2,0 -4,-2 -2,-5 -4,2 -6,4 -10,5 -1,1 -1,0 -2,0 0,-1 0,-2 0,-3 -1,0 -2,0 -2,0 -1,0 -1,-1 -2,-1 0,-1 -1,0 -2,0 -1,0 -2,0 -3,1 -1,0 -2,1 -3,1 -1,1 -8,3 -8,1zm0 0c0,0 0,0 0,0zm5 -3c-1,1 -2,2 -4,2 -2,1 5,1 5,-1 -1,0 -1,0 -1,-1zm4 0c-1,0 -2,0 -3,-1 0,0 0,-1 0,-1 1,-2 2,-5 5,-5 0,0 2,-1 2,0 2,2 -2,5 -4,7zm11 -6c4,-7 8,-10 12,-15 2,-1 4,-3 6,-3 1,1 0,3 -1,4 -4,5 -6,8 -11,12 -2,2 -6,4 -9,5 0,-1 2,-2 3,-3z"/>
   <path class="fil1" d="M247 40c0,2 -1,2 -2,2 0,0 0,-1 0,-1 0,-1 1,-1 2,-1z"/>
  </g>
 </g>
</svg>
