<svg  width="300px" height="60px">
 <g id="Camada_x0020_1">
  <metadata id="CorelCorpID_0Corel-Layer"/>
  <g id="_308894288">
   <path class="fil0" d="M188 36c0,-2 -1,-2 -2,-2 -1,-1 -1,0 -1,0 -1,1 4,0 0,4 -2,3 -11,1 -13,-6 -1,-3 -1,-8 0,-10 0,-3 1,-4 2,-7 5,-9 24,-16 29,-7 1,4 0,6 -1,10 -1,2 -4,6 -5,8 -3,3 -7,8 -9,10zm4 2c-1,2 1,2 3,2 2,-1 2,-1 2,-2 -2,1 -4,2 -4,1 0,-1 0,-2 1,-3 0,-1 0,-2 0,-2 -1,0 -1,0 -2,0 -2,1 -2,1 -2,1 1,-1 3,-3 4,-5 4,-4 11,-14 10,-19 0,-1 0,-2 0,-3 -5,-10 -24,-3 -30,6 -1,2 -2,3 -3,6 -1,5 -2,12 2,16 3,3 9,5 13,3 0,0 0,0 0,0 1,-1 2,-1 2,-2 0,-1 1,-1 2,-1 1,-1 2,-2 3,-1 0,1 -1,1 -1,3z"/>
   <path class="fil0" d="M153 31c0,0 0,-1 0,-1 1,0 1,1 0,1zm0 1c0,2 -5,2 -6,3 -1,2 1,2 2,2 -1,0 -1,-1 -1,-1 2,-1 3,-2 5,-2 1,1 8,9 6,13 -1,6 -17,2 -19,-3 0,-2 1,-2 2,-3 -3,0 -4,5 2,8 4,1 13,4 16,-1 3,-4 -5,-13 -6,-15 -1,-2 1,-3 -1,-3 -1,-1 0,1 0,2z"/>
   <path class="fil0" d="M202 35c0,2 3,0 4,2 0,1 -1,2 -2,2 -1,1 -2,1 -3,1 -1,1 -1,1 0,1 2,0 5,-1 6,1 0,2 0,3 -1,5 -4,5 -16,5 -11,0 1,0 3,-2 3,-2 0,0 -6,3 -4,5 2,3 14,-1 14,-6 0,-2 -2,-4 -4,-4 0,0 1,-1 2,-1 2,-2 0,-4 -1,-4 -1,0 -3,0 -3,0z"/>
   <path class="fil0" d="M207 51c0,0 3,-6 5,-6 2,0 -4,6 -5,6zm5 -14c0,0 -2,-1 0,-1 2,-1 5,0 4,2 -1,2 -6,3 -6,5 0,1 0,1 1,2 -3,1 -8,10 -1,4 1,-1 4,-4 2,-5 0,0 1,0 1,0 -1,-1 -2,0 -2,0 0,0 0,0 0,0 0,-2 1,-2 2,-3 2,-1 7,-4 3,-6 -4,-1 -8,2 -4,2z"/>
   <path class="fil0" d="M121 39c-1,0 -1,0 -2,0 -3,-2 1,-6 3,-6 1,0 3,2 3,4 0,1 -3,2 -4,2zm-5 -11c1,0 0,-1 3,1 1,1 2,2 3,3 -8,4 -4,10 2,7 4,-2 0,-6 -1,-7 2,0 3,0 4,1 -1,-2 -2,-2 -3,-2 -2,0 -3,-1 -4,-2 0,0 -1,0 -1,-1l-2 -1c0,0 -1,0 -1,0 0,0 0,0 0,0 -1,-2 -2,-1 -3,-1 1,0 1,0 2,1 1,1 0,1 1,1z"/>
   <path class="fil0" d="M225 39c0,-1 1,-3 2,-4 2,1 1,3 -2,4zm-2 -3c1,-1 1,-1 3,-1 -1,2 -1,3 -2,4 -5,1 -5,-2 -3,-4 1,-1 4,-2 5,-1 -2,0 -3,1 -4,2 0,0 0,1 1,0zm-5 2c0,0 1,1 2,1 3,2 11,-1 8,-4 -1,0 -1,-1 -1,-1 0,-1 0,-1 -1,-2 -1,0 -1,0 -2,1 -2,0 -6,2 -6,5z"/>
   <path class="fil0" d="M232 36c0,-1 1,-2 1,-2 0,-1 0,-1 0,-2 -1,1 -1,3 -3,5 -1,1 -2,3 -2,3 1,0 1,0 2,-1 2,-3 2,-3 5,-4 1,-1 3,-2 3,-2 -1,2 -6,7 -3,8 0,-1 1,-1 0,-1 0,-1 0,-1 2,-4 2,-2 3,-5 -2,-2l-3 2z"/>
   <path class="fil0" d="M102 23c0,2 0,2 2,2 0,0 0,0 0,0 0,0 -1,-1 0,-1 1,0 3,0 4,-1 2,0 4,0 6,0l12 -1c1,-1 0,0 1,-1l-24 2c-1,0 -1,0 -1,0z"/>
   <path class="fil0" d="M70 31c0,1 -1,1 -1,0 1,-1 -1,-1 -1,-1 -1,1 0,1 0,1 0,0 1,-1 1,0 0,4 -3,8 -8,8 -9,0 -12,-9 -11,-16 1,-6 4,-13 9,-16 1,0 1,0 2,0 0,-1 0,-1 1,-1 5,-2 14,-4 14,5 0,4 -3,14 -5,18 0,1 -1,1 -1,2zm24 22c-5,0 2,-9 3,-10 0,-1 1,-2 2,-2 1,5 2,8 -3,12 0,0 -1,0 -2,0zm-5 -16c0,-2 2,-3 3,-4 1,-1 4,-2 4,0 0,0 0,1 0,1 0,1 0,2 1,2 0,1 0,0 0,2 0,1 0,1 -1,1 -2,0 -4,0 -6,-1 0,0 -1,-1 -1,-1zm-16 -3c0,1 -1,2 -1,4 0,1 1,2 2,3 2,1 4,-1 4,-3 3,2 5,2 8,1 1,-1 1,-1 2,-2 1,2 3,2 5,3 1,0 2,0 3,0 1,-1 1,-1 2,-1 0,0 0,0 0,0 0,2 -1,2 -1,3 -9,10 -5,15 0,11 5,-4 5,-9 2,-14 1,0 5,-5 4,-3 0,0 -1,3 2,4 2,1 5,-1 5,-2 1,2 4,3 5,0 -3,2 -4,2 -4,-2 -1,-1 -1,1 -2,2 -2,2 -5,3 -5,-1 0,-1 1,-3 1,-4 -1,0 -6,5 -6,6 -1,-2 0,-2 0,-3 0,-2 0,-3 0,-4 -1,-1 -1,0 -2,0 0,0 0,-1 -1,-1 -3,-1 -6,2 -7,3 0,-1 -1,0 -1,-2l0 0c0,-1 0,0 0,-1 -2,-3 -6,-2 -7,0 -2,1 -1,1 -2,3 -2,2 0,2 -2,5 -1,1 -2,2 -3,1 -1,-1 -1,-3 0,-6 1,0 1,-1 0,-1 -1,-1 -3,-1 -4,0 0,1 -1,1 0,0 2,-2 8,-18 6,-25 -2,-9 -17,-3 -20,1 -2,3 -2,2 -4,5 0,1 0,0 0,1 -1,1 -1,1 -1,2 -2,6 -3,17 3,21 4,2 6,2 10,2 2,-1 3,-2 4,-4 1,-1 3,-4 5,-3 0,0 1,0 0,1zm10 5c-1,0 -3,0 -3,-2 0,-5 3,-7 5,-7 0,0 1,0 1,1 3,2 2,8 -3,8zm15 -3c0,0 0,1 0,0 0,0 -1,-2 -1,-3 0,-1 1,0 1,0 1,1 1,2 0,3z"/>
   <path class="fil0" d="M202 31c0,0 -2,1 -3,0 0,-1 0,-1 -1,-1 0,0 0,0 0,1 2,2 4,0 4,0z"/>
   <path class="fil0" d="M112 26l1 0c0,0 -1,0 -1,0z"/>
  </g>
  <rect class="fil1" width="287.886" height="57.5772"/>
 </g>
</svg>
